HIERARCHY
ROOT hip
{
  OFFSET 0 0 0
  CHANNELS 6 Xposition Yposition Zposition Zrotation Yrotation Xrotation
  JOINT abdomen
  {
    OFFSET 0 20.6881 -0.73152
    CHANNELS 3 Zrotation Xrotation Yrotation
    JOINT chest
    {
      OFFSET 0 11.7043 -0.48768
      CHANNELS 3 Zrotation Xrotation Yrotation
      JOINT neck
      {
        OFFSET 0 22.1894 -2.19456
        CHANNELS 3 Zrotation Xrotation Yrotation
        JOINT head
        {
          OFFSET -0.24384 7.07133 1.2192
          CHANNELS 3 Zrotation Xrotation Yrotation
          JOINT leftEye
          {
            OFFSET 4.14528 8.04674 8.04672
            CHANNELS 3 Zrotation Xrotation Yrotation
            End Site
            {
              OFFSET 1 0 0
            }
          }
          JOINT rightEye
          {
            OFFSET -3.6576 8.04674 8.04672
            CHANNELS 3 Zrotation Xrotation Yrotation
            End Site
            {
              OFFSET 1 0 0
            }
          }
        }
      }
      JOINT rCollar
      {
        OFFSET -2.68224 19.2634 -4.8768
        CHANNELS 3 Zrotation Xrotation Yrotation
        JOINT rShldr
        {
          OFFSET -8.77824 -1.95073 1.46304
          CHANNELS 3 Zrotation Xrotation Yrotation
          JOINT rForeArm
          {
            OFFSET -28.1742 -1.7115 0.48768
            CHANNELS 3 Zrotation Xrotation Yrotation
            JOINT rHand
            {
              OFFSET -22.5879 0.773209 7.07136
              CHANNELS 3 Zrotation Xrotation Yrotation
              JOINT rThumb1
              {
                OFFSET -1.2192 -0.487915 3.41376
                CHANNELS 3 Zrotation Xrotation Yrotation
                JOINT rThumb2
                {
                  OFFSET -3.37035 -0.52449 3.41376
                  CHANNELS 3 Zrotation Xrotation Yrotation
                  End Site
                  {
                    OFFSET -1.78271 -1.18214 1.43049
                  }
                }
              }
              JOINT rIndex1
              {
                OFFSET -7.75947 0.938293 5.60832
                CHANNELS 3 Zrotation Xrotation Yrotation
                JOINT rIndex2
                {
                  OFFSET -2.54057 -0.884171 1.56538
                  CHANNELS 3 Zrotation Xrotation Yrotation
                  End Site
                  {
                    OFFSET -1.62519 -0.234802 1.16502
                  }
                }
              }
              JOINT rMid1
              {
                OFFSET -8.24714 1.18213 3.41376
                CHANNELS 3 Zrotation Xrotation Yrotation
                JOINT rMid2
                {
                  OFFSET -3.10165 -0.590103 1.0647
                  CHANNELS 3 Zrotation Xrotation Yrotation
                  End Site
                  {
                    OFFSET -2.48547 -0.328903 0.83742
                  }
                }
              }
              JOINT rRing1
              {
                OFFSET -8.82822 0.546677 1.51678
                CHANNELS 3 Zrotation Xrotation Yrotation
                JOINT rRing2
                {
                  OFFSET -2.60934 -0.819778 -0.0198488
                  CHANNELS 3 Zrotation Xrotation Yrotation
                  End Site
                  {
                    OFFSET -2.33842 -0.294052 0.168128
                  }
                }
              }
              JOINT rPinky1
              {
                OFFSET -8.27202 -0.0477905 -0.4584
                CHANNELS 3 Zrotation Xrotation Yrotation
                JOINT rPinky2
                {
                  OFFSET -1.82734 -0.647385 -0.700984
                  CHANNELS 3 Zrotation Xrotation Yrotation
                  End Site
                  {
                    OFFSET -1.69225 -0.51767 -0.607171
                  }
                }
              }
            }
          }
        }
      }
      JOINT lCollar
      {
        OFFSET 2.68224 19.2634 -4.8768
        CHANNELS 3 Zrotation Xrotation Yrotation
        JOINT lShldr
        {
          OFFSET 8.77824 -1.95073 1.46304
          CHANNELS 3 Zrotation Xrotation Yrotation
          JOINT lForeArm
          {
            OFFSET 28.1742 -1.7115 0.48768
            CHANNELS 3 Zrotation Xrotation Yrotation
            JOINT lHand
            {
              OFFSET 22.5879 0.773209 7.07136
              CHANNELS 3 Zrotation Xrotation Yrotation
              JOINT lThumb1
              {
                OFFSET 1.2192 -0.487915 3.41376
                CHANNELS 3 Zrotation Xrotation Yrotation
                JOINT lThumb2
                {
                  OFFSET 3.37035 -0.52449 3.41376
                  CHANNELS 3 Zrotation Xrotation Yrotation
                  End Site
                  {
                    OFFSET 1.78271 -1.18214 1.43049
                  }
                }
              }
              JOINT lIndex1
              {
                OFFSET 7.75947 0.938293 5.60832
                CHANNELS 3 Zrotation Xrotation Yrotation
                JOINT lIndex2
                {
                  OFFSET 2.54057 -0.884171 1.56538
                  CHANNELS 3 Zrotation Xrotation Yrotation
                  End Site
                  {
                    OFFSET 1.62519 -0.234802 1.16502
                  }
                }
              }
              JOINT lMid1
              {
                OFFSET 8.24714 1.18213 3.41376
                CHANNELS 3 Zrotation Xrotation Yrotation
                JOINT lMid2
                {
                  OFFSET 3.10165 -0.590103 1.0647
                  CHANNELS 3 Zrotation Xrotation Yrotation
                  End Site
                  {
                    OFFSET 2.48547 -0.328903 0.83742
                  }
                }
              }
              JOINT lRing1
              {
                OFFSET 8.82822 0.546677 1.51678
                CHANNELS 3 Zrotation Xrotation Yrotation
                JOINT lRing2
                {
                  OFFSET 2.60934 -0.819778 -0.0198488
                  CHANNELS 3 Zrotation Xrotation Yrotation
                  End Site
                  {
                    OFFSET 2.33842 -0.294052 0.168128
                  }
                }
              }
              JOINT lPinky1
              {
                OFFSET 8.27202 -0.0477905 -0.4584
                CHANNELS 3 Zrotation Xrotation Yrotation
                JOINT lPinky2
                {
                  OFFSET 1.82734 -0.647385 -0.700984
                  CHANNELS 3 Zrotation Xrotation Yrotation
                  End Site
                  {
                    OFFSET 1.69225 -0.51767 -0.607171
                  }
                }
              }
            }
          }
        }
      }
    }
  }
  JOINT rButtock
  {
    OFFSET -8.77824 4.35084 1.2192
    CHANNELS 3 Zrotation Xrotation Yrotation
    JOINT rThigh
    {
      OFFSET 0 -1.70687 -2.19456
      CHANNELS 3 Zrotation Xrotation Yrotation
      JOINT rShin
      {
        OFFSET 0 -36.8199 0.73152
        CHANNELS 3 Zrotation Xrotation Yrotation
        JOINT rFoot
        {
          OFFSET 0.73152 -45.1104 -5.12064
          CHANNELS 3 Zrotation Xrotation Yrotation
          End Site
          {
            OFFSET -1.1221 -3.69964 12.103
          }
        }
      }
    }
  }
  JOINT lButtock
  {
    OFFSET 8.77824 4.35084 1.2192
    CHANNELS 3 Zrotation Xrotation Yrotation
    JOINT lThigh
    {
      OFFSET 0 -1.70687 -2.19456
      CHANNELS 3 Zrotation Xrotation Yrotation
      JOINT lShin
      {
        OFFSET 0 -36.8199 0.73152
        CHANNELS 3 Zrotation Xrotation Yrotation
        JOINT lFoot
        {
          OFFSET -0.73152 -45.1104 -5.12064
          CHANNELS 3 Zrotation Xrotation Yrotation
          End Site
          {
            OFFSET 1.1221 -3.69964 12.103
          }
        }
      }
    }
  }
}
MOTION
Frames:	4
Frame Time:	0.00833333
-8.40979 85.1388 132.266 0.0 0.0 0.0 0.41059 -0.00336425 0.0117806 0.113459 -0.00539521 0.0196593 5.97708e-15 0.0 6.21206e-18 1.78968e-14 3.18055e-15 3.41661e-17 -0.0 0.0 0.0 -0.0 0.0 0.0 3.07993e-15 -1.94126e-18 1.98785e-16 6.40019e-14 -1.80149e-16 9.93923e-16 1.08223e-12 -3.22429e-13 -1.27222e-14 1.23416e-11 3.22379e-13 4.13472e-14 2.91195e-11 3.6931e-15 6.04305e-14 5.02734e-11 3.18055e-15 9.22361e-14 2.91251e-11 3.18055e-15 5.40694e-14 7.73091 5.47488 0.417314 2.91196e-11 3.67752e-15 5.725e-14 2.90554 0.965183 0.102902 2.91284e-11 3.57812e-15 5.32743e-14 10.2786 0.731801 0.0259123 2.91144e-11 5.96354e-15 6.36111e-14 2.22167 -0.733487 -0.20892 2.88381e-15 -1.94126e-18 -1.98785e-16 6.20597e-14 -4.78326e-16 -1.98785e-16 1.07478e-12 3.21435e-13 0.0 1.23492e-11 -3.27026e-13 4.13472e-14 2.91224e-11 -4.39172e-15 4.45278e-14 5.03005e-11 -3.18055e-15 1.04163e-13 2.91176e-11 -3.57812e-15 6.36111e-14 -7.73091 5.47488 -0.417314 2.91222e-11 -4.77083e-15 5.08889e-14 -2.90554 0.965183 -0.102902 2.91169e-11 -4.07509e-15 5.64548e-14 -10.2786 0.731801 -0.0259123 2.91245e-11 -3.97569e-16 5.725e-14 -2.22167 -0.733487 0.20892 -2.03217e-16 0.0 -3.88251e-19 0.7706 -4.17183 -0.0656814 -0.00265484 2.00555 -0.01827 -0.461825 2.16687 0.0961002 2.03217e-16 0.0 3.88251e-19 -0.143239 -2.55995 0.0260686 0.00716324 -0.914091 0.0621722 0.453779 3.47457 -0.121226
-7.72203 83.4464 126.244 179.935 0.1359 -154.849 -1.30333 -8.1473 -1.01258 1.06565 3.90709 -0.175031 -0.0679561 4.36332 -1.39739 1.79047 -3.58462 -2.15757 -0.0 0.0 0.0 -0.0 0.0 0.0 4.53179e-14 1.07815e-13 1.3133e-14 23.0307 2.52764 -2.42245 -5.18623 -2.58734 7.83404 0.00155545 -0.87645 -0.123125 -8.05152e-10 8.38724e-10 -7.8689e-10 -1.3915e-09 1.44907e-09 -1.36238e-09 -8.05147e-10 8.38723e-10 -7.86903e-10 7.73091 5.47488 0.417314 -8.05152e-10 8.38724e-10 -7.86896e-10 2.90554 0.965183 0.102902 -8.05144e-10 8.38724e-10 -7.86898e-10 10.2786 0.731801 0.0259123 -8.05157e-10 8.38726e-10 -7.8689e-10 2.22167 -0.733487 -0.20892 4.51974e-14 1.07814e-13 1.27898e-14 -21.2708 4.71635 0.0359495 3.05293 -1.21543 -4.93867 -0.00538374 1.62783 -0.228443 -1.03167e-09 8.01825e-11 1.06952e-09 -1.77667e-09 1.40589e-10 1.85511e-09 -1.03168e-09 8.01831e-11 1.06954e-09 -7.73091 5.47488 -0.417314 -1.03167e-09 8.01835e-11 1.06952e-09 -2.90554 0.965183 -0.102902 -1.03168e-09 8.01839e-11 1.06953e-09 -10.2786 0.731801 -0.0259123 -1.03167e-09 8.01856e-11 1.06953e-09 -2.22167 -0.733487 0.20892 -2.03217e-16 0.0 -3.88251e-19 0.870506 -11.0905 1.94517 0.00273307 4.40395 0.0357472 -0.498726 -2.56971 -0.387704 2.03217e-16 0.0 3.88251e-19 -0.542582 -9.03635 -1.77799 0.00587774 1.08123 0.0292866 0.428268 1.82515 -1.012
-7.7478 83.4435 126.235 180.14 -0.0766 -154.887 -3.44627 -16.7495 -2.16433 2.10152 8.04309 -0.382956 0.0875536 8.97264 -2.89091 3.40097 -7.3663 -4.44313 -0.0 0.0 0.0 -0.0 0.0 0.0 9.17002e-14 2.23633e-13 2.74509e-14 47.6128 5.17774 -5.00315 -9.90586 -5.16039 16.1649 -0.000895804 -1.79685 -0.252523 -1.71068e-09 1.72975e-09 -1.61977e-09 -2.95644e-09 2.9885e-09 -2.8044e-09 -1.71067e-09 1.72975e-09 -1.61979e-09 7.73091 5.47488 0.417314 -1.71068e-09 1.72975e-09 -1.61978e-09 2.90554 0.965183 0.102902 -1.71067e-09 1.72975e-09 -1.61978e-09 10.2786 0.731801 0.0259123 -1.71068e-09 1.72975e-09 -1.61977e-09 2.22167 -0.733487 -0.20892 9.16599e-14 2.23631e-13 2.71652e-14 -43.7644 9.70318 0.0766261 6.05533 -2.47133 -10.1698 0.00305713 3.34608 -0.470201 -2.18187e-09 1.34878e-10 2.19716e-09 -3.75779e-09 2.37122e-10 3.81121e-09 -2.18187e-09 1.34879e-10 2.19718e-09 -7.73091 5.47488 -0.417314 -2.18187e-09 1.34881e-10 2.19717e-09 -2.90554 0.965183 -0.102902 -2.18188e-09 1.34881e-10 2.19717e-09 -10.2786 0.731801 -0.0259123 -2.18187e-09 1.34881e-10 2.19717e-09 -2.22167 -0.733487 0.20892 -2.03217e-16 0.0 -3.88251e-19 1.52843 -18.3697 4.20189 0.00348708 6.93983 0.0932961 -0.624346 -7.57948 -0.901129 2.03217e-16 0.0 3.88251e-19 -1.42572 -15.8569 -3.77964 0.00701555 3.18858 -0.00546011 0.345099 0.084055 -1.96162
-7.73447 83.4387 126.259 180.101 0.0615 -154.78 -5.67695 -24.4025 -3.32827 3.05121 11.7315 -0.575207 0.448416 13.0584 -4.29118 4.55125 -10.6923 -6.5747 -0.0 0.0 0.0 -0.0 0.0 0.0 1.29794e-13 3.23449e-13 3.90014e-14 69.7363 7.52849 -7.32374 -13.4883 -7.18282 23.675 -0.00664436 -2.6293 -0.369722 -2.4737e-09 2.51616e-09 -2.36079e-09 -4.27506e-09 4.34721e-09 -4.08734e-09 -2.47369e-09 2.51616e-09 -2.36082e-09 7.73091 5.47488 0.417314 -2.47369e-09 2.51616e-09 -2.3608e-09 2.90554 0.965183 0.102902 -2.47369e-09 2.51616e-09 -2.3608e-09 10.2786 0.731801 0.0259123 -2.4737e-09 2.51617e-09 -2.3608e-09 2.22167 -0.733487 -0.20892 1.29825e-13 3.23446e-13 3.87669e-14 -63.8306 14.149 0.110846 8.53696 -3.53808 -14.8416 0.0229102 4.88317 -0.687547 -3.15327e-09 2.40556e-10 3.20847e-09 -5.4306e-09 4.21774e-10 5.56513e-09 -3.15327e-09 2.40557e-10 3.20848e-09 -7.73091 5.47488 -0.417314 -3.15326e-09 2.4056e-10 3.20847e-09 -2.90554 0.965183 -0.102902 -3.15328e-09 2.4056e-10 3.20848e-09 -10.2786 0.731801 -0.0259123 -3.15327e-09 2.40558e-10 3.20848e-09 -2.22167 -0.733487 0.20892 -2.03217e-16 0.0 -3.88251e-19 2.65579 -24.8074 6.45538 -0.00021208 9.20074 0.145312 -0.816485 -12.0396 -1.38447 2.03217e-16 0.0 3.88251e-19 -2.6464 -21.9023 -5.73502 0.0101865 5.07188 -0.0366277 0.223464 -1.47111 -2.79337
